# xmcd
#
# Track frame offsets:
#	182
#	14270
#	29580
#	45607
#
# Disc length: 824 seconds
#
# Revision: 1
# Processed by: cddbd v1.5.1PL2 Copyright (c) Steve Scherf et al.
# Submitted via: audiograbber 1.80
#
DISCID=2a033604
DTITLE=Oxana and Julia G - ExGirlfriend
DYEAR=1900
DGENRE=
TTITLE0=exGirlfriend (radio mix)
TTITLE1=exGirlfriend (dance mix)
TTITLE2=exGirlfriend (r'n'b mix)
TTITLE3=Hard to say
EXTD=
EXTT0=
EXTT1=
EXTT2=
EXTT3=
PLAYORDER=
